# xmcd CD database file
#
# Track frame offsets:
#	150
#	23839
#	43907
#	63806
#	87236
#	109312
#	134745
#	159454
#	183041
#	199239
#
# Disc length: 2960 seconds
#
# Revision: 0
# Processed by: cddbd v1.5PL3 Copyright (c) Steve Scherf et al.
# Submitted via: CDex 1.51
#
DISCID=870b8e0a
DTITLE=James Vincent - Pure Satisfaction
DYEAR=2001
DGENRE=Jazz
TTITLE0=Forever Held In Your Love
TTITLE1=Don't Let The Sun Go Down On Your Anger
TTITLE2=Pure Satisfaction
TTITLE3=Piyapong
TTITLE4=Be Still My Soul
TTITLE5=These Things We Seek
TTITLE6=The Shadow Of Your Wings
TTITLE7=Be Not Afraid
TTITLE8=I Just Want To Thank You Lord
TTITLE9=Creation Dreams
EXTD=YEAR: 2001
EXTT0=
EXTT1=
EXTT2=
EXTT3=
EXTT4=
EXTT5=
EXTT6=
EXTT7=
EXTT8=
EXTT9=
PLAYORDER=
